<svg width="35" height="35" viewBox="0 0 35 35" fill="none" xmlns="http://www.w3.org/2000/svg">
<path fill-rule="evenodd" clip-rule="evenodd" d="M17.5 0.03125C27.1476 0.03125 34.9688 7.85238 34.9688 17.5C34.9688 27.1476 27.1476 34.9688 17.5 34.9688C7.85238 34.9688 0.03125 27.1476 0.03125 17.5C0.03125 7.85238 7.85238 0.03125 17.5 0.03125ZM24.0488 18.2638L18.3612 12.5763C18.1327 12.348 17.823 12.2198 17.5 12.2198C17.177 12.2198 16.8673 12.348 16.6388 12.5763L10.9513 18.2638C10.8315 18.3753 10.7355 18.5099 10.6689 18.6594C10.6022 18.8089 10.5664 18.9703 10.5635 19.1339C10.5607 19.2975 10.5908 19.4601 10.6521 19.6118C10.7133 19.7636 10.8046 19.9015 10.9203 20.0172C11.036 20.1329 11.1739 20.2242 11.3257 20.2854C11.4774 20.3467 11.64 20.3768 11.8036 20.374C11.9672 20.3711 12.1286 20.3353 12.2781 20.2686C12.4276 20.202 12.5622 20.106 12.6737 19.9862L17.5 15.16L22.3263 19.9862C22.4378 20.106 22.5724 20.202 22.7219 20.2686C22.8714 20.3353 23.0328 20.3711 23.1964 20.374C23.36 20.3768 23.5226 20.3467 23.6743 20.2854C23.8261 20.2242 23.964 20.1329 24.0797 20.0172C24.1954 19.9015 24.2867 19.7636 24.3479 19.6118C24.4092 19.4601 24.4393 19.2975 24.4365 19.1339C24.4336 18.9703 24.3978 18.8089 24.3311 18.6594C24.2645 18.5099 24.1685 18.3753 24.0488 18.2638Z" fill="black"/>
</svg>
